<?xml version="1.0" encoding="UTF-8"?>
<svg version="1.1" xmlns="http://www.w3.org/2000/svg" width="1024" height="1024">
<path d="M0 0 C0.86367188 0.34047363 1.72734375 0.68094727 2.6171875 1.03173828 C17.86307801 7.13177109 33.1526596 14.12065167 46.2734375 24.13671875 C48.61075213 25.30537606 49.55017982 24.81445579 52 24 C53.92966128 22.90435076 53.92966128 22.90435076 55.8359375 21.5234375 C56.92769287 20.76909424 56.92769287 20.76909424 58.04150391 19.99951172 C58.81155762 19.46342285 59.58161133 18.92733398 60.375 18.375 C78.25793151 6.20361727 94.9627653 -0.20338376 116.87109375 3.6875 C134.64290311 8.80782923 150.12469868 20.69660761 159.23046875 36.8359375 C172.63323462 61.86244741 170.81112235 88.86612475 162.9375 115.375 C161.95706846 118.42990685 160.87034111 121.28462554 159.5390625 124.20703125 C157.56125691 128.75182879 156.53411059 133.49364019 155.4375 138.3125 C155.22931641 139.19873047 155.02113281 140.08496094 154.80664062 140.99804688 C154.38865248 142.79447868 153.98121745 144.59339627 153.58398438 146.39453125 C153.2223964 148.00776991 152.83752371 149.61621441 152.41601562 151.21484375 C150.25608335 160.10230701 150.60162202 169.28626417 150.625 178.375 C150.62654083 179.2734967 150.62808167 180.17199341 150.62966919 181.09771729 C150.71636267 202.26651771 154.71120317 219.24138085 161.9765625 239.13671875 C164.21537213 245.40437267 166 251.31818753 166 258 C167.0209375 258.00386719 167.0209375 258.00386719 168.0625 258.0078125 C186.03909218 258.72496378 201.39838157 267.62674698 214 280 C214.68964844 280.66515625 215.37929688 281.3303125 216.08984375 282.015625 C231.73358609 298.24794379 238.43207465 321.164562 238.3125 343.25 C238.30404053 344.89850952 238.30404053 344.89850952 238.29541016 346.58032227 C238.16883037 355.0868602 237.36238806 362.78958716 235 371 C234.80132324 371.70141113 234.60264648 372.40282227 234.39794922 373.12548828 C229.9603791 388.46585241 223.62944297 401.92755425 213 414 C212.33613281 414.80695313 211.67226563 415.61390625 210.98828125 416.4453125 C203.29445941 425.51861811 194.02619776 432.75373751 183.75 438.6875 C179.61752426 441.20898848 179.61752426 441.20898848 177.6875 445.6875 C177.55601562 446.68330078 177.55601562 446.68330078 177.421875 447.69921875 C175.49118453 458.22863253 168.5467128 465.38691545 160.1484375 471.3046875 C152.06150271 476.36363757 142.6278017 477.1807012 133.390625 475.53515625 C125.19083496 473.38334799 118.71875168 469.52265282 113.75 462.625 C111.47631563 459.83893606 110.42745716 459.08803708 106.8515625 458.3515625 C100.12423961 458.12740964 100.12423961 458.12740964 94.1640625 460.921875 C91.95482239 462.8108742 91.95482239 462.8108742 91 465 C91.57234375 465.24234375 92.1446875 465.4846875 92.734375 465.734375 C103.3113537 471.64289414 111.09990541 486.6791595 114.52734375 497.9375 C118.11507374 513.59304903 117.37505112 530.24869265 111 545 C110.72124023 545.66580078 110.44248047 546.33160156 110.15527344 547.01757812 C100.26134544 570.13628031 82.37197828 584.62070006 59.4453125 594.05078125 C57.31397968 594.81197154 55.18691775 595.41940237 53 596 C52.15824219 596.27585937 51.31648438 596.55171875 50.44921875 596.8359375 C33.88826301 601.61777638 15.89053453 600.19549363 -0.33203125 594.99609375 C-5.02783608 593.72087519 -7.37695641 594.69239313 -11.703125 596.52734375 C-19.7147455 599.5641259 -29.45412849 599.39492466 -37.58984375 596.8984375 C-48.61785959 591.69733041 -54.63145907 584.28103203 -58.75 572.93359375 C-60.69998168 566.23053173 -60.79971547 558.74893301 -59 552 C-60.11375 551.938125 -61.2275 551.87625 -62.375 551.8125 C-71.41442026 550.6445749 -78.14541344 545.72695873 -84 539 C-86.82386318 540.28412744 -88.8009614 541.64209471 -91 543.8125 C-96.45364969 548.62732739 -103.71141513 552 -111 552 C-110.84015625 552.53238281 -110.6803125 553.06476562 -110.515625 553.61328125 C-108.32817156 563.73853922 -110.14692155 573.17430457 -115.125 582.0625 C-119.95899064 589.31348596 -127.3297795 596.09445703 -136 598 C-143.73636078 598.84948275 -152.02911294 599.47213611 -159.0625 595.75 C-165.52160151 592.50915711 -172.49984303 595.48519535 -179.03051758 597.45581055 C-194.23014644 601.65563362 -212.23185508 600.13016424 -227 595 C-228.04929687 594.63777344 -229.09859375 594.27554688 -230.1796875 593.90234375 C-242.39972566 589.22064082 -252.66183554 582.07372087 -262 573 C-262.95326172 572.13955078 -262.95326172 572.13955078 -263.92578125 571.26171875 C-278.09532346 558.09755425 -285.66590187 537.58572061 -286.39428711 518.59375 C-286.7639832 498.54243663 -279.60512292 482.60543153 -265.91796875 468.09375 C-263.85659569 465.95064709 -263.85659569 465.95064709 -262 463 C-264.30380337 460.14168316 -265.56068966 459.09203578 -269.20703125 458.328125 C-276.10551078 457.97537093 -276.10551078 457.97537093 -282.2265625 460.62109375 C-283.93192717 462.68076934 -285.45601067 464.81809929 -287 467 C-293.77705507 473.58880354 -303.39262639 476.18427024 -312.625 476.5 C-323.68057029 476.09102306 -331.76462998 471.12402413 -339.53125 463.49609375 C-343.95449081 458.54691882 -346.87003887 453.22698577 -347.3125 446.625 C-348.02072454 442.95852785 -348.98121759 442.01502098 -351.96484375 439.62890625 C-354.5498567 437.91098941 -357.19498746 436.29418228 -359.8359375 434.6640625 C-382.95696905 420.27119349 -399.11555137 395.79195325 -405.4453125 369.49609375 C-405.62835938 368.67238281 -405.81140625 367.84867188 -406 367 C-406.20367187 366.22785156 -406.40734375 365.45570313 -406.6171875 364.66015625 C-412.07971519 340.97673138 -407.34261688 314.91415349 -395.1875 294.1875 C-384.24179221 277.20708639 -368.49239376 263.71670351 -348.625 258.8125 C-343.14353333 257.70046098 -337.57302506 257.35833325 -332 257 C-331.66226563 255.97519531 -331.32453125 254.95039063 -330.9765625 253.89453125 C-330.5261226 252.53382737 -330.07559724 251.17315178 -329.625 249.8125 C-329.40328125 249.13896484 -329.1815625 248.46542969 -328.953125 247.77148438 C-328.03138108 244.99269757 -327.10216567 242.24341746 -325.96875 239.54296875 C-316.79847002 215.47098381 -318.19457559 185.43295183 -328.125 161.875 C-332.75675115 151.5829295 -338.97015521 142.08583832 -345.625 133 C-357.5726105 116.16601452 -364.29099247 95.68646187 -361.609375 74.984375 C-358.45825313 60.19834159 -350.74190297 48.32936312 -340 38 C-339.34386719 37.33613281 -338.68773437 36.67226563 -338.01171875 35.98828125 C-324.43899952 23.05496207 -307.29015775 17.82943608 -289 17.75 C-287.26556641 17.7190625 -287.26556641 17.7190625 -285.49609375 17.6875 C-272.45766492 17.62922769 -260.83078579 21.21069242 -248.5 25.125 C-246.24029246 25.83818824 -243.97990052 26.54921251 -241.71875 27.2578125 C-240.73841797 27.5686377 -239.75808594 27.87946289 -238.74804688 28.19970703 C-233.77496799 29.6479793 -229.15584168 30.74842863 -224 30 C-221.18354613 28.26228407 -218.62232264 26.30473369 -216.00390625 24.28125 C-156.80959806 -20.67255492 -67.76859879 -26.71951179 0 0 Z M-237 63 C-238.41152344 64.3303125 -238.41152344 64.3303125 -239.8515625 65.6875 C-246.65676543 72.28183749 -252.48814464 79.32749734 -258 87 C-258.39509766 87.54011719 -258.79019531 88.08023438 -259.19726562 88.63671875 C-277.07422301 113.27239489 -288.26957019 141.25567882 -294 171 C-294.18546387 171.84103271 -294.37092773 172.68206543 -294.56201172 173.54858398 C-296.62620703 183.86863984 -296.39619131 194.33254252 -296.375 204.8125 C-296.37445618 205.81755585 -296.37391235 206.82261169 -296.37335205 207.85812378 C-296.33657448 222.60695895 -295.85846735 236.6813783 -292 251 C-291.77505859 251.86222168 -291.55011719 252.72444336 -291.31835938 253.61279297 C-284.20731766 280.33796832 -272.41573689 304.40589738 -255.26171875 326.0625 C-249.12254061 334.03600943 -247.89478366 338.93547674 -249 349 C-250.5005747 355.00229878 -255.1871906 358.12133675 -260.1796875 361.3671875 C-277.67685505 371.49712661 -299.87912964 374.00945811 -319.48046875 369.171875 C-331.71375914 365.09863736 -342.61464654 359.72279712 -348.8125 348 C-352.76635798 339.37694789 -354.58421676 331.52757636 -351.75 322.3125 C-348.95074264 314.88221318 -344.80213624 310.04415507 -338 306 C-335.0625 305.125 -335.0625 305.125 -332 305 C-331.28714844 304.95101563 -330.57429688 304.90203125 -329.83984375 304.8515625 C-324.78548708 304.63217473 -321.34631707 305.1377912 -317 308 C-314.54583727 311.6812441 -314.40615846 314.72261963 -315 319 C-316.5 321.5 -316.5 321.5 -318 323 C-320.61034681 322.51660244 -322.10725543 321.92463132 -324.3125 320.375 C-328.05606526 318.45968754 -330.0079141 318.78811678 -334 320 C-337.10543083 322.64291986 -338.63520063 324.20800307 -339.4453125 328.1875 C-339.71897428 333.58775906 -338.59988674 336.8317101 -335 341 C-329.83284416 345.94249689 -325.44665579 347.99165414 -318.375 348.5 C-310.94333722 348.32065369 -304.40698929 344.9176551 -298.82421875 340.13671875 C-290.88885098 331.65759987 -288.52689112 321.83972469 -288.66796875 310.4765625 C-289.67171594 299.96673896 -295.28280983 291.9035567 -303 285 C-314.9242449 275.9297547 -328.36596142 273.41260196 -343 275 C-357.4451684 277.89554051 -370.45500398 286.99920934 -378.69848633 299.11914062 C-382.57297101 305.10734605 -385.94335686 311.14452288 -388 318 C-388.29648437 318.97453125 -388.59296875 319.9490625 -388.8984375 320.953125 C-395.21745847 345.41759151 -390.52293106 371.38486716 -378 393 C-362.58551474 418.20439611 -337.70080591 431.45419785 -309.93676758 438.81176758 C-300.31252982 441.10706353 -291.16650347 441.517725 -281.3125 441.4375 C-280.51908203 441.43445862 -279.72566406 441.43141724 -278.90820312 441.42828369 C-266.8349638 441.35987921 -255.60524043 440.53383862 -244 437 C-242.28269696 436.50080341 -240.56524181 436.0021299 -238.84765625 435.50390625 C-235.40258895 434.49072582 -231.96830736 433.44823204 -228.5390625 432.3828125 C-223.94783738 430.96501789 -219.32589177 429.75682748 -214.6484375 428.65625 C-212.84778293 428.21007011 -211.06036256 427.707548 -209.2890625 427.15625 C-201.56698079 424.76660867 -193.10679496 422.94372415 -185.3515625 426.06640625 C-176.03867566 431.74386384 -172.64027863 440.82251569 -170 451 C-164.96351112 473.26490116 -165.30271449 496.3415159 -176.52734375 516.78125 C-182.07362159 525.44649349 -190.04729872 531.14234169 -199.80859375 534.3359375 C-207.92538729 536.02486639 -217.63376272 536.79744697 -225.1875 532.9375 C-229.16435947 530.21446663 -232.23416305 526.92713387 -235 523 C-235.61875 522.13375 -236.2375 521.2675 -236.875 520.375 C-238.95229175 514.14312474 -239.48888333 507.32423636 -236.7578125 501.2265625 C-234.45268052 497.68285214 -232.54040675 495.36027116 -229 493 C-226.44140625 492.69921875 -226.44140625 492.69921875 -223.5625 492.6875 C-222.61503906 492.67074219 -221.66757812 492.65398437 -220.69140625 492.63671875 C-217.58609482 493.05586819 -216.2154585 493.81048363 -214 496 C-213.75 498.6875 -213.75 498.6875 -214 501 C-215.7578125 501.94401042 -217.515625 502.88802083 -219.2734375 503.83203125 C-221.30502365 505.04763493 -221.30502365 505.04763493 -223 508 C-223.65848355 512.23310854 -223.22376466 513.67678439 -220.75 517.25 C-217.26031853 520.73968147 -214.70220542 522.28593156 -209.75 522.375 C-204.12466417 522.22696485 -199.64296284 520.44388252 -195.49609375 516.609375 C-190.52198038 510.96709715 -188.4513982 505.5802836 -188.5625 498.125 C-188.57007324 497.41609619 -188.57764648 496.70719238 -188.58544922 495.97680664 C-188.76181652 490.38390328 -189.63829498 486.4474731 -193 482 C-193.43570313 481.38898438 -193.87140625 480.77796875 -194.3203125 480.1484375 C-197.85532278 475.60894342 -201.96971595 472.71879725 -207 470 C-207.61617187 469.64550781 -208.23234375 469.29101562 -208.8671875 468.92578125 C-217.60981804 465.13090316 -229.06082784 465.92956572 -237.8125 469.0625 C-243.64211619 471.57709751 -248.31462099 474.74725913 -253 479 C-253.62519531 479.53367187 -254.25039063 480.06734375 -254.89453125 480.6171875 C-263.83142669 488.75579816 -268.65798357 500.36005699 -269.28125 512.30859375 C-269.82520807 530.20274384 -264.44410125 545.75846479 -252.5625 559.40625 C-239.52567982 572.60205579 -222.35539183 581.73268735 -203.5625 582.3984375 C-201.37500007 582.40626865 -199.187389 582.39838064 -197 582.375 C-195.91460937 582.38660156 -194.82921875 582.39820313 -193.7109375 582.41015625 C-183.06323625 582.37203799 -173.37909663 580.27510728 -163.9375 575.3125 C-163.25977539 574.96292236 -162.58205078 574.61334473 -161.88378906 574.25317383 C-133.89693912 559.45358426 -116.38243744 533.66266449 -107 504 C-106.78005371 503.30567871 -106.56010742 502.61135742 -106.33349609 501.89599609 C-100.90330623 484.22696304 -98.80709704 465.8222382 -96.85986328 447.49853516 C-94.28352468 423.34667164 -94.28352468 423.34667164 -89.63671875 417.1953125 C-86.66566326 415.02552018 -83.56102156 415.82486779 -80 416 C-74.274456 429.47543122 -72.95769835 443.96475496 -71.5 458.375 C-69.80055968 475.11021649 -67.89285281 491.82699336 -61.75 507.625 C-61.45480469 508.40294922 -61.15960937 509.18089844 -60.85546875 509.98242188 C-54.47504076 526.38732982 -46.24095674 541.24035865 -34 554 C-33.30132813 554.76183594 -32.60265625 555.52367187 -31.8828125 556.30859375 C-18.97180095 569.95264808 0.45839036 581.68295076 19.609375 582.43359375 C21.9894663 582.45723266 24.36987835 582.45785525 26.75 582.4375 C27.99410645 582.42920166 29.23821289 582.42090332 30.52001953 582.41235352 C39.34219103 582.24975151 46.84067082 581.56772738 55 578 C56.17175781 577.50242187 57.34351563 577.00484375 58.55078125 576.4921875 C66.68024519 572.83588921 73.49522666 568.07043235 80 562 C80.71800781 561.33613281 81.43601562 560.67226563 82.17578125 559.98828125 C94.45036698 547.47535405 99.28918307 530.64205182 99.31689453 513.61181641 C99.21517355 506.72367335 98.24346662 501.15245075 95 495 C94.5875 494.16597656 94.175 493.33195312 93.75 492.47265625 C87.55824257 481.05660348 77.98915764 472.53568123 65.7265625 468.1953125 C55.03903204 465.3787431 43.76939887 466.13838669 34.14453125 471.62890625 C26.64849735 476.63637829 21.86287068 482.41138795 19 491 C18.31657358 499.08907992 18.52555188 506.04784446 23 513 C25.27110728 515.85484511 25.27110728 515.85484511 28 518 C28.86625 518.763125 29.7325 519.52625 30.625 520.3125 C35.43937303 522.71968651 39.71331397 522.66184466 45 522 C49.22810115 520.32637663 51.16681431 518.14878867 53 514 C53.66666667 511 53.66666667 511 53 508 C50.37632897 504.79329096 47.84788585 502.5676572 44 501 C44.3125 498.125 44.3125 498.125 45 495 C49.26756038 492.15495975 52.99228356 492.38282434 58 493 C62.25741807 494.97102688 65.13996037 497.51432098 67.30078125 501.75390625 C69.37309908 508.41079312 69.11842171 515.71258368 65.9375 521.9375 C61.76033034 528.35033793 56.35443567 532.7051538 49 535 C36.37569897 537.04912717 26.66229474 534.40672746 16.29296875 527.08984375 C9.1141087 521.33168764 5.4026299 514.36667883 2 506 C1.56558594 505.00097656 1.13117188 504.00195312 0.68359375 502.97265625 C-6.36870645 483.48668392 -3.7183807 456.91884395 4.8125 438.1875 C8.21488551 432.02875155 12.53679312 427.80771593 19 425 C27.77781528 423.76366164 36.00666633 426.24117577 44.375 428.625 C45.70708588 428.99240914 47.03952958 429.35852327 48.37231445 429.72338867 C54.2519353 431.34154577 60.11216305 433.02187446 65.95703125 434.76171875 C90.19054362 441.9718356 112.10916226 443.87149253 137 439 C138.03125 438.80664062 139.0625 438.61328125 140.125 438.4140625 C167.03517501 432.52746172 191.78140914 418.3153899 207 395 C219.69594787 374.23445885 224.92913775 348.23763455 219.92382812 324.24243164 C215.31659238 305.95919944 205.03063776 290.96661374 189 281 C176.27195523 274.55112398 162.03978724 272.68518515 148.1875 276.5625 C135.15397824 281.18156719 126.78632015 288.74783552 120.7265625 301.078125 C117.25890233 310.25064545 118.13831803 321.12541766 122 330 C126.19861451 338.07023413 131.86947458 343.65079531 140.4375 346.875 C147.28471303 348.82129685 152.68642578 348.88381554 159.25 345.9375 C163.75692665 343.41727155 167.15553817 340.94315771 169 336 C169.93252076 330.59137959 170.0050256 326.52276607 166.9375 321.875 C163.37782399 319.60286638 161.23055793 318.92577969 157 319 C154.9639118 320.27754554 152.95890881 321.60699818 151 323 C148.75 323 148.75 323 147 322 C144.64813933 318.8249881 144.46135095 315.84749322 145 312 C146.82547936 309.07516133 148.86858411 306.56570795 152 305 C159.65485501 304.33860318 166.75304258 304.08189098 173 309 C178.42233155 314.15336669 181.97411822 318.74667634 182.30078125 326.3984375 C182.31530891 328.05723265 182.31891968 329.71615366 182.3125 331.375 C182.32861328 332.2 182.34472656 333.025 182.36132812 333.875 C182.36832272 342.68819302 179.25263098 349.50765913 173.12890625 355.9765625 C167.64643281 361.19517359 162.03620669 364.29967731 155 367 C153.9275 367.4125 152.855 367.825 151.75 368.25 C144.09773373 370.33698171 136.44484096 370.18324158 128.5625 370.1875 C127.37333984 370.19974609 126.18417969 370.21199219 124.95898438 370.22460938 C118.58156471 370.23523251 113.09166134 369.89773485 107 368 C105.98035156 367.71640625 104.96070313 367.4328125 103.91015625 367.140625 C92.73211262 363.64461135 85.49183073 358.73774609 79 349 C78.05317614 343.53636066 77.8611566 338.25230867 80.40234375 333.2265625 C82.49291651 330.37927936 84.71781576 327.6961451 87 325 C88.85233055 322.63328621 90.65143757 320.2295067 92.4375 317.8125 C92.90422119 317.18102051 93.37094238 316.54954102 93.85180664 315.89892578 C102.11647833 304.51586108 108.43866378 291.888176 114 279 C114.51304687 277.82953125 115.02609375 276.6590625 115.5546875 275.453125 C134.63446976 228.59397064 130.79783554 173.0682073 111.77539062 127.03662109 C89.38067854 75.31338107 46.8649428 36.8526243 -5.00341797 15.77978516 C-18.67090474 10.48451658 -32.62490281 6.79061123 -47 4 C-48.24849731 3.72071655 -48.24849731 3.72071655 -49.5222168 3.43579102 C-59.07556951 1.50728458 -68.70055151 1.66317328 -78.4050293 1.68432617 C-81.39995644 1.68746071 -84.39386801 1.66405366 -87.38867188 1.63867188 C-144.37221352 1.45481522 -195.96406518 24.16096585 -237 63 Z " fill="#FAFAFA" transform="translate(597,231)"/>
<path d="M0 0 C7.63694354 5.40527503 13.94765319 12.78071365 16.27734375 21.9921875 C18.11102586 33.96401587 16.47769381 44.58054346 9.68359375 54.64453125 C4.28200753 61.72147576 -4.49008946 67.11530122 -13.31640625 68.64453125 C-25.9644341 69.70866821 -35.72920546 67.78919718 -45.69140625 59.51953125 C-53.05047906 52.42116633 -56.85646438 44.69402487 -57.51953125 34.53125 C-57.6966194 22.44498406 -54.82366682 13.60482895 -46.46484375 4.6640625 C-33.60087624 -7.35426571 -15.20319767 -8.89630623 0 0 Z " fill="#FAFAFA" transform="translate(642.31640625,420.35546875)"/>
<path d="M0 0 C7.52696459 5.25738366 14.75377483 12.50973648 16.859375 21.6796875 C18.22338882 33.78568323 17.10333819 44.70118504 10.171875 54.9921875 C4.2065977 62.3433373 -4.86261654 67.15782712 -14.140625 68.6796875 C-25.84713132 69.55160067 -34.98972502 67.93729153 -44.2578125 60.5078125 C-50.90984938 54.04898831 -56.05190336 45.68127347 -56.5390625 36.27734375 C-56.55205314 34.76566063 -56.54381516 33.25366358 -56.515625 31.7421875 C-56.50474854 30.94949463 -56.49387207 30.15680176 -56.48266602 29.34008789 C-56.17649172 18.11793336 -52.48248668 10.71317113 -44.29296875 2.921875 C-31.44688712 -7.57656543 -14.04552891 -8.6631182 0 0 Z " fill="#FAFAFA" transform="translate(422.140625,420.3203125)"/>
<path d="M0 0 C6.38496394 2.50874589 11.67754475 7.18934179 16.9375 11.5 C17.49348877 11.95028564 18.04947754 12.40057129 18.62231445 12.86450195 C23.23278481 16.78513342 25.72674633 20.44963245 26.375 26.5 C25.86367377 31.27237811 24.59010848 34.55896419 21 37.8125 C16.58049109 40.43658342 11.98496877 41.01016988 7 40 C2.68494093 37.74218689 -1.12256272 34.93385879 -5 32 C-5.86625 31.37996094 -6.7325 30.75992187 -7.625 30.12109375 C-17.31456673 22.99734979 -17.31456673 22.99734979 -18.44140625 16.42578125 C-18.77051474 11.29308932 -18.50126764 7.88845541 -15.125 3.875 C-10.61637783 -0.67718374 -6.21408023 -0.87645701 0 0 Z " fill="#F9FAF9" transform="translate(230,426)"/>
<path d="M0 0 C5.12396854 1.91063234 5.83854642 4.87246848 8.14453125 9.6328125 C10.82593392 14.39824206 14.51293565 16.65014522 19.6875 18.375 C32.1634546 19.55666748 32.1634546 19.55666748 43.25 14.796875 C47.08495085 11.00360839 49.32714527 7.20299831 51.6875 2.375 C52.3475 1.715 53.0075 1.055 53.6875 0.375 C60.26442308 0.95192308 60.26442308 0.95192308 61.6875 2.375 C62.39407895 9.2994737 60.3746738 13.82703237 56.28515625 19.2265625 C49.66576826 26.57424501 40.27064297 30.88468044 30.48828125 31.61328125 C18.96686788 31.8584177 10.20150193 29.35916061 1.6875 21.375 C-2.44877946 16.69640835 -5.87158981 12.07864563 -6.625 5.75 C-6.3125 3.375 -6.3125 3.375 -5.25 1.5 C-3.3125 0.375 -3.3125 0.375 0 0 Z " fill="#F4F5F4" transform="translate(484.3125,476.625)"/>
<path d="M0 0 C3.72849882 1.82907489 5.58576516 3.39869136 7.9375 6.8125 C9.25716388 10.77149165 9.07741324 12.97765723 8 17 C3.9156562 24.67856634 -3.01312891 31.51481989 -11 35 C-14.44166822 35.5434213 -16.69931498 35.79210256 -19.73828125 33.94140625 C-22.79322647 31.4843262 -24.70032717 29.62841083 -25.4140625 25.75 C-25.75885108 21.25497852 -25.74871243 18.17219231 -23.2734375 14.296875 C-20.96376382 11.70940552 -18.5513231 9.34833171 -16 7 C-15.30777344 6.28070313 -14.61554687 5.56140625 -13.90234375 4.8203125 C-9.28160795 0.24550847 -6.49510125 -1.15235667 0 0 Z " fill="#F8F9F8" transform="translate(652,188)"/>
<path d="M0 0 C2.96278513 1.8109608 5.4214584 3.84291681 7 7 C7.54393357 11.4584719 7.49244013 14.9946014 5.5 19.0625 C-4.41341194 30.71075903 -4.41341194 30.71075903 -11.875 31.3125 C-15.07843802 31.27127929 -16.00618364 30.99623604 -18.875 29.25 C-21.79007536 26.16344962 -22.82513599 24.34062405 -23.375 20.125 C-22.89294478 16.1078732 -21.46002396 14.19138244 -19 11 C-18.236875 9.989375 -17.47375 8.97875 -16.6875 7.9375 C-11.80609999 2.60201627 -7.66356204 -1.39337492 0 0 Z " fill="#F7F8F8" transform="translate(791,424)"/>
<path d="M0 0 C3.36592449 1.23840618 6.20949023 2.74308946 8.171875 5.86328125 C9.94614078 10.44122173 9.67973557 15.30066107 7.875 19.8125 C4.98257184 23.18699952 2.29653347 25.55550965 -2.1796875 26.421875 C-6.31273999 26.67236303 -9.13791252 26.35578669 -12.4375 23.75 C-16.39690054 19.50088722 -17.47601231 16.9995435 -17.3203125 11.02734375 C-16.65964304 6.8457895 -14.04941967 4.16602186 -11.3125 1.125 C-7.58304543 -0.68932925 -4.05915683 -0.62185736 0 0 Z " fill="#060606" transform="translate(616,425)"/>
<path d="M0 0 C3.49384502 1.22931584 5.39579206 2.33537127 7.875 5.0625 C9.54369335 9.41964374 9.79477062 13.40063301 9 18 C6.98499188 21.91007527 4.03483851 24.32756694 0 26 C-3.75784338 26.64908204 -7.41510576 26.84103267 -10.84765625 25.01953125 C-13.66795495 22.76744998 -16.00466794 20.48366223 -17 17 C-17.46612801 12.18334395 -17.52190197 9.98788587 -15.25 5.6875 C-10.54557172 0.06832178 -7.24798016 -0.91858082 0 0 Z " fill="#050606" transform="translate(416,425)"/>
<path d="M0 0 C1.59714844 0.48919922 1.59714844 0.48919922 3.2265625 0.98828125 C14.98780705 4.54676275 26.73081961 7.77308196 39 9 C38.41435372 12.95311239 36.80790963 15.19209037 34 18 C27.79234173 21.98787195 21.27225598 23.24422079 14 22 C7.89966519 19.51090018 3.80897294 15.43704859 0.75 9.625 C-0.18410069 6.3556476 -0.04757294 3.38560773 0 0 Z " fill="#080808" transform="translate(265,668)"/>
<path d="M0 0 C-0.17147708 6.73437248 -1.38718543 11.92369688 -6 17 C-11.25911699 21.35091606 -16.50574432 22.8266735 -23.28515625 22.484375 C-29.1539801 21.43727549 -34.10524541 18.73243923 -37.5625 13.8125 C-39 11 -39 11 -39 9 C-38.2471875 8.90203125 -37.494375 8.8040625 -36.71875 8.703125 C-25.23736003 7.08681282 -11.07113296 0 0 0 Z " fill="#0A0A0A" transform="translate(759,668)"/>
<path d="M0 0 C0.66206532 4.41376877 -0.18501804 6.70092905 -2.75 10.1875 C-5.68118917 13.94031037 -8.43979279 16.47993093 -13 18 C-20.03650387 18.72971151 -25.50400002 18.55113922 -31.4765625 14.58203125 C-33.39543693 12.58935396 -34.11801914 10.59791391 -35 8 C-34.07102905 7.79636841 -34.07102905 7.79636841 -33.12329102 7.58862305 C-30.26857313 6.959888 -27.41555417 6.3237402 -24.5625 5.6875 C-23.10166992 5.36749023 -23.10166992 5.36749023 -21.61132812 5.04101562 C-16.2564084 3.84108378 -11.10034119 2.47305831 -5.95288086 0.56176758 C-4 0 -4 0 0 0 Z " fill="#0C0B0B" transform="translate(376,667)"/>
<path d="M0 0 C0.70898438 0.72445312 1.41796875 1.44890625 2.1484375 2.1953125 C10.01789165 9.93540576 18.51999491 16.36424894 28 22 C24.20876567 25.91760881 22.33959126 27.17711787 16.875 27.375 C11.04838733 27.31390839 7.31537006 25.90825967 3 22 C-0.606424 17.37637949 -2.14414731 13.82660121 -2.1875 8 C-2.20167969 7.13375 -2.21585938 6.2675 -2.23046875 5.375 C-2 3 -2 3 0 0 Z " fill="#080908" transform="translate(556,786)"/>
<path d="M0 0 C1.97762732 3.95525464 1.42863836 8.68980312 1 13 C-0.89536051 18.64487805 -4.81950662 22.13464734 -9.8515625 25.0859375 C-14.92546308 27.24465156 -20.54758632 26.56058072 -25.5625 24.625 C-28 23 -28 23 -29 21 C-28.33355469 20.59910156 -27.66710937 20.19820312 -26.98046875 19.78515625 C-18.77634673 14.72499148 -11.04115569 9.15829064 -4.3046875 2.2265625 C-2 0 -2 0 0 0 Z " fill="#0A0A0A" transform="translate(469,787)"/>
<path d="M0 0 C7.37817125 1.61177442 14.72101505 3.35423214 22.0625 5.125 C23.21427734 5.40214844 24.36605469 5.67929687 25.55273438 5.96484375 C28.36865757 6.64253481 31.18440764 7.32093598 34 8 C34 9.32 34 10.64 34 12 C27.88436896 17.71678554 24.45673005 18.37899228 16.265625 18.26171875 C11.87005735 17.90944239 9.10202566 17.18280757 6 14 C2.59536059 9.42501579 0 5.79704788 0 0 Z " fill="#090909" transform="translate(648,667)"/>
<path d="M0 0 C0.36351562 1.17175781 0.72703125 2.34351563 1.1015625 3.55078125 C3.72813951 11.82335378 6.39513391 19.54883788 10.8984375 27.03125 C12 29 12 29 12 31 C5.90059045 31.42064893 2.86336347 31.08964656 -2 27 C-6.73148595 21.74279339 -8.56547746 17.66318089 -8.4609375 10.6171875 C-7.73993998 6.52338804 -4.71192551 0 0 0 Z " fill="#0D0D0D" transform="translate(530,735)"/>
<path d="M0 0 C3.28491538 2.42046396 5.5052579 4.18161337 7 8 C7.67375822 13.18637141 7.65925549 17.63077706 5.375 22.375 C2.29890427 25.77489528 -0.85312115 28.92656057 -5 31 C-7.3329866 31.04022391 -9.66706666 31.04320247 -12 31 C-10.27071274 25.53293039 -8.14541749 20.25051759 -6 14.9375 C-5.64421875 14.05255859 -5.2884375 13.16761719 -4.921875 12.25585938 C-4.24288955 10.56726311 -3.5632422 8.87893278 -2.8828125 7.19091797 C-1.91764996 4.79562797 -0.95737124 2.3984144 0 0 Z " fill="#0B0C0C" transform="translate(495,735)"/>
<path d="M0 0 C0.33 0 0.66 0 1 0 C1.66 3.96 2.32 7.92 3 12 C1.68 12.33 0.36 12.66 -1 13 C-1.33 12.67 -1.66 12.34 -2 12 C-1.93607199 10.16352258 -1.79944271 8.32929108 -1.625 6.5 C-1.53476562 5.4996875 -1.44453125 4.499375 -1.3515625 3.46875 C-1 1 -1 1 0 0 Z " fill="#222424" transform="translate(512,715)"/>
</svg>
